<svg width="1411" height="438" viewBox="0 0 1411 438" fill="none" xmlns="http://www.w3.org/2000/svg">
<rect y="-9" width="1425" height="452" fill="#45B871"/>
<path d="M-10 185.39C41.5045 248.782 131.164 402.216 156.556 460.956L205.702 434.937C191.122 396.106 153.902 308.389 121.663 268.178C81.3636 217.914 17.4744 143.404 21.406 -16.8503H95.1243C82.1827 19.616 71.7311 113.127 133.458 195.443C210.616 298.337 267.134 426.658 266.642 443.807H310.382C304.648 413.255 286.595 342.687 260.253 304.841C227.326 257.534 108.398 108.515 160.984 -16.8503H236.668C212.259 22.1785 188.599 126.373 289.249 254.577C332.89 302.831 358.872 400.836 366.408 443.807L413.587 434.937C413.751 399.654 402.186 314.185 354.613 254.577C295.147 180.068 254.72 91.9572 318.609 -17.4417H399.051C369.564 15.6737 322.177 98.3437 371.322 185.39C432.754 294.197 470.596 337.957 463.224 443.807L506.964 434.937C504.179 389.009 490.746 287.574 459.293 249.255C419.976 201.356 349.667 84.861 474.497 -17.4417L544.447 -17.4415M544.447 -17.4415C507.915 17.2508 438.258 95.5052 454.378 152.274C474.528 223.236 529.571 249.255 530.554 307.207C531.537 365.159 535.468 426.067 550.212 434.937C557.289 434.937 584.286 434.937 596.9 434.937C585.433 413.057 564.563 357.826 572.819 311.937C583.14 254.577 506.964 210.226 506.964 159.962C506.964 109.698 566.922 4.43811 636.217 -17.4417L544.447 -17.4415ZM772.35 94.3226C848.034 146.952 849.727 339.656 794.957 339.656C753.731 339.656 728.814 317.601 692.243 339.656C674.983 350.064 707.829 262.465 663.247 219.096C555.431 114.217 718.29 68.5674 772.35 94.3226Z" stroke="#95CDDC" stroke-opacity="0.35" stroke-width="2"/>
<path d="M704.489 35.6486C663.552 46.0746 613.299 108.314 593.29 138.131C560.225 191.209 596.57 238.442 618.875 255.423C632.16 416.552 665.126 392.264 682.839 394.041C700.553 395.818 752.708 367.384 810.275 381.009C867.843 394.634 873.747 340.727 889.492 270.825C905.237 200.924 863.415 157.68 854.066 103.18C839.797 -19.4431 755.66 22.6162 704.489 35.6486Z" stroke="#95CDDC" stroke-opacity="0.35" stroke-width="2"/>
<path d="M879 21.4951C898.362 64.5626 937.374 158.047 940.524 201.667C944.462 256.193 980.52 362.486 916.034 473.316H983.596C987.698 450.399 996.543 392.271 998.119 351.021C1000.09 299.458 985.812 194.555 976.459 164.922C967.106 135.288 923.87 21.4951 934.05 21.4951C945.561 21.4951 961.075 21.4951 980.397 21.4951C1000.25 86.0964 1039.76 219.803 1038.98 237.82C1037.99 260.342 1043.15 459.193 1033.14 473.316C1033.82 470.945 1067.06 473.316 1083.19 473.316C1085.32 413.061 1087.41 283.93 1082.3 257.379C1075.9 224.189 1027.96 36.9046 1017.63 21.4951C1020.38 21.4951 1058.48 21.4951 1077.18 21.4951C1084.4 63.3773 1103.21 98.1591 1125.61 172.626C1141.86 248.488 1163.71 416.419 1124.73 473.316H1175.27C1186.59 431.038 1207.62 332.648 1202.9 285.234C1196.99 225.967 1146.78 81.9476 1133.98 21.4951H1186.16C1202.9 72.2673 1236.37 181.635 1236.37 212.928C1236.37 252.045 1261.81 440.719 1229.32 473.316H1285.87C1285.87 437.558 1285.6 356.829 1285.6 316.053C1285.6 265.083 1276.74 155.439 1253.11 117.508C1234.21 87.1632 1229.48 40.8557 1229.48 21.4951H1273.78M1273.78 21.4951C1296.1 90.4426 1339.16 241.139 1332.86 292.346C1324.98 356.355 1340.22 454.35 1327.91 473.316H1377.46M1273.78 21.4951C1295.38 21.4951 1302.39 21.4951 1327.44 21.4951M1377.46 473.316C1391.69 473.316 1376.17 257.379 1376.17 191.488C1376.17 138.775 1343.69 56.1957 1327.44 21.4951M1377.46 473.316H1425L1424 316.053C1428 268.836 1407.32 100.007 1396.47 21.4951H1327.44" stroke="#95CDDC" stroke-opacity="0.35" stroke-width="2"/>
</svg>
